<svg width="24" height="24" viewBox="0 0 24 24" fill="none" xmlns="http://www.w3.org/2000/svg">
<mask id="mask0_194_13593" style="mask-type:alpha" maskUnits="userSpaceOnUse" x="0" y="0" width="24" height="24">
<rect width="24" height="24" fill="#D9D9D9"/>
</mask>
<g mask="url(#mask0_194_13593)">
<path d="M2 20C1.71667 20 1.47933 19.904 1.288 19.712C1.096 19.5207 1 19.2833 1 19V16C1 15.45 1.196 14.979 1.588 14.587C1.97933 14.1957 2.45 14 3 14H6.275C6.60833 14 6.925 14.0833 7.225 14.25C7.525 14.4167 7.76667 14.6417 7.95 14.925C8.43333 15.575 9.02933 16.0833 9.738 16.45C10.446 16.8167 11.2 17 12 17C12.8167 17 13.5793 16.8167 14.288 16.45C14.996 16.0833 15.5833 15.575 16.05 14.925C16.2667 14.6417 16.5207 14.4167 16.812 14.25C17.104 14.0833 17.4083 14 17.725 14H21C21.55 14 22.021 14.1957 22.413 14.587C22.8043 14.979 23 15.45 23 16V19C23 19.2833 22.904 19.5207 22.712 19.712C22.5207 19.904 22.2833 20 22 20H17C16.7167 20 16.4793 19.904 16.288 19.712C16.096 19.5207 16 19.2833 16 19V17.725C15.4167 18.1417 14.7877 18.4583 14.113 18.675C13.4377 18.8917 12.7333 19 12 19C11.2833 19 10.5833 18.8877 9.9 18.663C9.21667 18.4377 8.58333 18.1167 8 17.7V19C8 19.2833 7.90433 19.5207 7.713 19.712C7.521 19.904 7.28333 20 7 20H2ZM12 16C11.3667 16 10.7667 15.854 10.2 15.562C9.63333 15.2707 9.15833 14.8667 8.775 14.35C8.49167 13.9333 8.13767 13.6043 7.713 13.363C7.28767 13.121 6.825 13 6.325 13C6.69167 12.3833 7.46667 11.8957 8.65 11.537C9.83333 11.179 10.95 11 12 11C13.05 11 14.1667 11.179 15.35 11.537C16.5333 11.8957 17.3083 12.3833 17.675 13C17.1917 13 16.7333 13.121 16.3 13.363C15.8667 13.6043 15.5083 13.9333 15.225 14.35C14.8583 14.8833 14.3917 15.2917 13.825 15.575C13.2583 15.8583 12.65 16 12 16ZM4 13C3.16667 13 2.45833 12.7083 1.875 12.125C1.29167 11.5417 1 10.8333 1 10C1 9.16667 1.29167 8.45833 1.875 7.875C2.45833 7.29167 3.16667 7 4 7C4.83333 7 5.54167 7.29167 6.125 7.875C6.70833 8.45833 7 9.16667 7 10C7 10.8333 6.70833 11.5417 6.125 12.125C5.54167 12.7083 4.83333 13 4 13ZM20 13C19.1667 13 18.4583 12.7083 17.875 12.125C17.2917 11.5417 17 10.8333 17 10C17 9.16667 17.2917 8.45833 17.875 7.875C18.4583 7.29167 19.1667 7 20 7C20.8333 7 21.5417 7.29167 22.125 7.875C22.7083 8.45833 23 9.16667 23 10C23 10.8333 22.7083 11.5417 22.125 12.125C21.5417 12.7083 20.8333 13 20 13ZM12 10C11.1667 10 10.4583 9.70833 9.875 9.125C9.29167 8.54167 9 7.83333 9 7C9 6.16667 9.29167 5.45833 9.875 4.875C10.4583 4.29167 11.1667 4 12 4C12.8333 4 13.5417 4.29167 14.125 4.875C14.7083 5.45833 15 6.16667 15 7C15 7.83333 14.7083 8.54167 14.125 9.125C13.5417 9.70833 12.8333 10 12 10Z" fill="#E7E7E7" fill-opacity="0.56"/>
</g>
</svg>
