<svg width="24" height="25" viewBox="0 0 24 25" fill="none" xmlns="http://www.w3.org/2000/svg">
<path d="M24.0001 12.5373C24.0001 11.7104 23.9201 10.8568 23.7867 10.0566H12.2368V14.7779H18.852C18.5852 16.2983 17.705 17.632 16.398 18.4856L20.3457 21.5531C22.6664 19.3925 24.0001 16.245 24.0001 12.5373Z" fill="#4280EF"/>
<path d="M12.2367 24.4873C15.5442 24.4873 18.3184 23.3936 20.3456 21.5264L16.3978 18.4856C15.3042 19.2325 13.8905 19.6593 12.2367 19.6593C9.03578 19.6593 6.34169 17.4987 5.35475 14.6179L1.30029 17.7387C3.38087 21.8732 7.59538 24.4873 12.2367 24.4873Z" fill="#34A353"/>
<path d="M5.35482 14.5912C4.84801 13.0707 4.84801 11.417 5.35482 9.89653L1.30036 6.74899C-0.433454 10.2166 -0.433454 14.2978 1.30036 17.7387L5.35482 14.5912Z" fill="#F6B704"/>
<path d="M12.2367 4.85515C13.9705 4.82847 15.6776 5.49533 16.9313 6.69566L20.4256 3.17468C18.2117 1.0941 15.2775 -0.0262085 12.2367 0.00046554C7.59538 0.00046554 3.38087 2.61453 1.30029 6.74901L5.35475 9.89655C6.34169 6.98907 9.03578 4.85515 12.2367 4.85515Z" fill="#E54335"/>
</svg>
