<svg width="119" height="38" viewBox="0 0 119 38" fill="none" xmlns="http://www.w3.org/2000/svg">
<path d="M5.832 28V13.432H0.24V10.72H14.316V13.432H8.724V28H5.832ZM25.3487 28V21.76C25.3487 21.352 25.3207 20.9 25.2647 20.404C25.2087 19.908 25.0767 19.432 24.8687 18.976C24.6687 18.512 24.3647 18.132 23.9567 17.836C23.5567 17.54 23.0127 17.392 22.3247 17.392C21.9567 17.392 21.5927 17.452 21.2327 17.572C20.8727 17.692 20.5447 17.9 20.2487 18.196C19.9607 18.484 19.7287 18.884 19.5527 19.396C19.3767 19.9 19.2887 20.548 19.2887 21.34L17.5727 20.608C17.5727 19.504 17.7847 18.504 18.2087 17.608C18.6407 16.712 19.2727 16 20.1047 15.472C20.9367 14.936 21.9607 14.668 23.1767 14.668C24.1367 14.668 24.9287 14.828 25.5527 15.148C26.1767 15.468 26.6727 15.876 27.0407 16.372C27.4087 16.868 27.6807 17.396 27.8567 17.956C28.0327 18.516 28.1447 19.048 28.1927 19.552C28.2487 20.048 28.2767 20.452 28.2767 20.764V28H25.3487ZM16.3607 28V10.72H18.9407V19.816H19.2887V28H16.3607ZM37.4501 28.36C36.1381 28.36 34.9861 28.076 33.9941 27.508C33.0021 26.94 32.2261 26.152 31.6661 25.144C31.1141 24.136 30.8381 22.976 30.8381 21.664C30.8381 20.248 31.1101 19.02 31.6541 17.98C32.1981 16.932 32.9541 16.12 33.9221 15.544C34.8901 14.968 36.0101 14.68 37.2821 14.68C38.6261 14.68 39.7661 14.996 40.7021 15.628C41.6461 16.252 42.3461 17.136 42.8021 18.28C43.2581 19.424 43.4301 20.772 43.3181 22.324H40.4501V21.268C40.4421 19.86 40.1941 18.832 39.7061 18.184C39.2181 17.536 38.4501 17.212 37.4021 17.212C36.2181 17.212 35.3381 17.58 34.7621 18.316C34.1861 19.044 33.8981 20.112 33.8981 21.52C33.8981 22.832 34.1861 23.848 34.7621 24.568C35.3381 25.288 36.1781 25.648 37.2821 25.648C37.9941 25.648 38.6061 25.492 39.1181 25.18C39.6381 24.86 40.0381 24.4 40.3181 23.8L43.1741 24.664C42.6781 25.832 41.9101 26.74 40.8701 27.388C39.8381 28.036 38.6981 28.36 37.4501 28.36ZM32.9861 22.324V20.14H41.9021V22.324H32.9861ZM57.3283 28.36C56.0643 28.36 55.0043 28.06 54.1483 27.46C53.2923 26.86 52.6483 26.044 52.2163 25.012C51.7843 23.972 51.5683 22.808 51.5683 21.52C51.5683 20.216 51.7843 19.048 52.2163 18.016C52.6483 16.984 53.2803 16.172 54.1123 15.58C54.9523 14.98 55.9883 14.68 57.2203 14.68C58.4443 14.68 59.5043 14.98 60.4003 15.58C61.3043 16.172 62.0043 16.984 62.5003 18.016C62.9963 19.04 63.2443 20.208 63.2443 21.52C63.2443 22.816 63.0003 23.98 62.5123 25.012C62.0243 26.044 61.3363 26.86 60.4483 27.46C59.5603 28.06 58.5203 28.36 57.3283 28.36ZM51.0763 33.76V15.04H53.6323V24.136H53.9923V33.76H51.0763ZM56.8843 25.768C57.6363 25.768 58.2563 25.58 58.7443 25.204C59.2323 24.828 59.5923 24.32 59.8243 23.68C60.0643 23.032 60.1843 22.312 60.1843 21.52C60.1843 20.736 60.0643 20.024 59.8243 19.384C59.5843 18.736 59.2123 18.224 58.7083 17.848C58.2043 17.464 57.5643 17.272 56.7883 17.272C56.0523 17.272 55.4523 17.452 54.9883 17.812C54.5243 18.164 54.1803 18.66 53.9563 19.3C53.7403 19.932 53.6323 20.672 53.6323 21.52C53.6323 22.36 53.7403 23.1 53.9563 23.74C54.1803 24.38 54.5283 24.88 55.0003 25.24C55.4803 25.592 56.1083 25.768 56.8843 25.768ZM71.7634 28.36C70.4674 28.36 69.3354 28.068 68.3674 27.484C67.3994 26.9 66.6474 26.096 66.1114 25.072C65.5834 24.04 65.3194 22.856 65.3194 21.52C65.3194 20.16 65.5914 18.968 66.1354 17.944C66.6794 16.92 67.4354 16.12 68.4034 15.544C69.3714 14.968 70.4914 14.68 71.7634 14.68C73.0674 14.68 74.2034 14.972 75.1714 15.556C76.1394 16.14 76.8914 16.948 77.4274 17.98C77.9634 19.004 78.2314 20.184 78.2314 21.52C78.2314 22.864 77.9594 24.052 77.4154 25.084C76.8794 26.108 76.1274 26.912 75.1594 27.496C74.1914 28.072 73.0594 28.36 71.7634 28.36ZM71.7634 25.648C72.9154 25.648 73.7714 25.264 74.3314 24.496C74.8914 23.728 75.1714 22.736 75.1714 21.52C75.1714 20.264 74.8874 19.264 74.3194 18.52C73.7514 17.768 72.8994 17.392 71.7634 17.392C70.9874 17.392 70.3474 17.568 69.8434 17.92C69.3474 18.264 68.9794 18.748 68.7394 19.372C68.4994 19.988 68.3794 20.704 68.3794 21.52C68.3794 22.776 68.6634 23.78 69.2314 24.532C69.8074 25.276 70.6514 25.648 71.7634 25.648ZM81.2653 13.072V10.42H84.1573V13.072H81.2653ZM81.2653 28V15.04H84.1573V28H81.2653ZM96.8659 28V21.76C96.8659 21.352 96.8379 20.9 96.7819 20.404C96.7259 19.908 96.5939 19.432 96.3859 18.976C96.1859 18.512 95.8819 18.132 95.4739 17.836C95.0739 17.54 94.5299 17.392 93.8419 17.392C93.4739 17.392 93.1099 17.452 92.7499 17.572C92.3899 17.692 92.0619 17.9 91.7659 18.196C91.4779 18.484 91.2459 18.884 91.0699 19.396C90.8939 19.9 90.8059 20.548 90.8059 21.34L89.0899 20.608C89.0899 19.504 89.3019 18.504 89.7259 17.608C90.1579 16.712 90.7899 16 91.6219 15.472C92.4539 14.936 93.4779 14.668 94.6939 14.668C95.6539 14.668 96.4459 14.828 97.0699 15.148C97.6939 15.468 98.1899 15.876 98.5579 16.372C98.9259 16.868 99.1979 17.396 99.3739 17.956C99.5499 18.516 99.6619 19.048 99.7099 19.552C99.7659 20.048 99.7939 20.452 99.7939 20.764V28H96.8659ZM87.8779 28V15.04H90.4579V19.06H90.8059V28H87.8779ZM110.671 28C109.815 28.16 108.975 28.228 108.151 28.204C107.335 28.188 106.603 28.04 105.955 27.76C105.307 27.472 104.815 27.02 104.479 26.404C104.183 25.844 104.027 25.272 104.011 24.688C103.995 24.104 103.987 23.444 103.987 22.708V11.44H106.867V22.54C106.867 23.06 106.871 23.516 106.879 23.908C106.895 24.3 106.979 24.62 107.131 24.868C107.419 25.348 107.879 25.616 108.511 25.672C109.143 25.728 109.863 25.696 110.671 25.576V28ZM101.635 17.308V15.04H110.671V17.308H101.635Z" fill="#E7E7E7"/>
<circle cx="117" cy="27" r="2" fill="#FFCD00"/>
</svg>
