<svg width="24" height="24" viewBox="0 0 24 24" fill="none" xmlns="http://www.w3.org/2000/svg">
<mask id="mask0_194_13893" style="mask-type:alpha" maskUnits="userSpaceOnUse" x="0" y="0" width="24" height="24">
<rect width="24" height="24" fill="#D9D9D9"/>
</mask>
<g mask="url(#mask0_194_13893)">
<path d="M9 6H11V4H9V6ZM13 6V4H15V6H13ZM9 14V12H11V14H9ZM17 10V8H19V10H17ZM17 14V12H19V14H17ZM13 14V12H15V14H13ZM17 6V4H19V6H17ZM11 8V6H13V8H11ZM6 20C5.71667 20 5.479 19.904 5.287 19.712C5.09567 19.5207 5 19.2833 5 19V5C5 4.71667 5.09567 4.479 5.287 4.287C5.479 4.09567 5.71667 4 6 4C6.28333 4 6.521 4.09567 6.713 4.287C6.90433 4.479 7 4.71667 7 5V6H9V8H7V10H9V12H7V19C7 19.2833 6.90433 19.5207 6.713 19.712C6.521 19.904 6.28333 20 6 20ZM15 12V10H17V12H15ZM11 12V10H13V12H11ZM9 10V8H11V10H9ZM13 10V8H15V10H13ZM15 8V6H17V8H15Z" fill="#E7E7E7" fill-opacity="0.56"/>
</g>
</svg>
