<svg width="203" height="32" viewBox="0 0 203 32" fill="none" xmlns="http://www.w3.org/2000/svg">
<path d="M5.328 21.5L0.276 4.22H3.312L6.756 16.7L10.188 4.244L13.224 4.22L16.668 16.7L20.1 4.22H23.136L18.096 21.5H15.24L11.7 9.212L8.184 21.5H5.328ZM34.2081 21.5V15.26C34.2081 14.852 34.1801 14.4 34.1241 13.904C34.0681 13.408 33.9361 12.932 33.7281 12.476C33.5281 12.012 33.2241 11.632 32.8161 11.336C32.4161 11.04 31.8721 10.892 31.1841 10.892C30.8161 10.892 30.4521 10.952 30.0921 11.072C29.7321 11.192 29.4041 11.4 29.1081 11.696C28.8201 11.984 28.5881 12.384 28.4121 12.896C28.2361 13.4 28.1481 14.048 28.1481 14.84L26.4321 14.108C26.4321 13.004 26.6441 12.004 27.0681 11.108C27.5001 10.212 28.1321 9.5 28.9641 8.972C29.7961 8.436 30.8201 8.168 32.0361 8.168C32.9961 8.168 33.7881 8.328 34.4121 8.648C35.0361 8.968 35.5321 9.376 35.9001 9.872C36.2681 10.368 36.5401 10.896 36.7161 11.456C36.8921 12.016 37.0041 12.548 37.0521 13.052C37.1081 13.548 37.1361 13.952 37.1361 14.264V21.5H34.2081ZM25.2201 21.5V4.22H27.8001V13.316H28.1481V21.5H25.2201ZM44.0415 21.86C43.1055 21.86 42.3135 21.684 41.6655 21.332C41.0175 20.972 40.5255 20.496 40.1895 19.904C39.8615 19.312 39.6975 18.66 39.6975 17.948C39.6975 17.324 39.8015 16.764 40.0095 16.268C40.2175 15.764 40.5375 15.332 40.9695 14.972C41.4015 14.604 41.9615 14.304 42.6495 14.072C43.1695 13.904 43.7775 13.752 44.4735 13.616C45.1775 13.48 45.9375 13.356 46.7535 13.244C47.5775 13.124 48.4375 12.996 49.3335 12.86L48.3015 13.448C48.3095 12.552 48.1095 11.892 47.7015 11.468C47.2935 11.044 46.6055 10.832 45.6375 10.832C45.0535 10.832 44.4895 10.968 43.9455 11.24C43.4015 11.512 43.0215 11.98 42.8055 12.644L40.1655 11.816C40.4855 10.72 41.0935 9.84 41.9895 9.176C42.8935 8.512 44.1095 8.18 45.6375 8.18C46.7895 8.18 47.8015 8.368 48.6735 8.744C49.5535 9.12 50.2055 9.736 50.6295 10.592C50.8615 11.048 51.0015 11.516 51.0495 11.996C51.0975 12.468 51.1215 12.984 51.1215 13.544V21.5H48.5895V18.692L49.0095 19.148C48.4255 20.084 47.7415 20.772 46.9575 21.212C46.1815 21.644 45.2095 21.86 44.0415 21.86ZM44.6175 19.556C45.2735 19.556 45.8335 19.44 46.2975 19.208C46.7615 18.976 47.1295 18.692 47.4015 18.356C47.6815 18.02 47.8695 17.704 47.9655 17.408C48.1175 17.04 48.2015 16.62 48.2175 16.148C48.2415 15.668 48.2535 15.28 48.2535 14.984L49.1415 15.248C48.2695 15.384 47.5215 15.504 46.8975 15.608C46.2735 15.712 45.7375 15.812 45.2895 15.908C44.8415 15.996 44.4455 16.096 44.1015 16.208C43.7655 16.328 43.4815 16.468 43.2495 16.628C43.0175 16.788 42.8375 16.972 42.7095 17.18C42.5895 17.388 42.5295 17.632 42.5295 17.912C42.5295 18.232 42.6095 18.516 42.7695 18.764C42.9295 19.004 43.1615 19.196 43.4655 19.34C43.7775 19.484 44.1615 19.556 44.6175 19.556ZM61.9916 21.5C61.1356 21.66 60.2956 21.728 59.4716 21.704C58.6556 21.688 57.9236 21.54 57.2756 21.26C56.6276 20.972 56.1356 20.52 55.7996 19.904C55.5036 19.344 55.3476 18.772 55.3316 18.188C55.3156 17.604 55.3076 16.944 55.3076 16.208V4.94H58.1876V16.04C58.1876 16.56 58.1916 17.016 58.1996 17.408C58.2156 17.8 58.2996 18.12 58.4516 18.368C58.7396 18.848 59.1996 19.116 59.8316 19.172C60.4636 19.228 61.1836 19.196 61.9916 19.076V21.5ZM52.9556 10.808V8.54H61.9916V10.808H52.9556ZM65.2884 10.364L65.4564 9.116C65.8244 9.148 66.1164 9.088 66.3324 8.936C66.5484 8.776 66.6924 8.556 66.7644 8.276C66.8444 7.988 66.8644 7.664 66.8244 7.304H65.2884V4.22H68.2524V7.424C68.2524 8.472 68.0044 9.264 67.5084 9.8C67.0124 10.336 66.2724 10.524 65.2884 10.364ZM74.9809 21.86C73.3809 21.86 72.0809 21.5 71.0809 20.78C70.0809 20.06 69.4729 19.048 69.2569 17.744L72.2089 17.288C72.3609 17.928 72.6969 18.432 73.2169 18.8C73.7369 19.168 74.3929 19.352 75.1849 19.352C75.8809 19.352 76.4169 19.216 76.7929 18.944C77.1769 18.664 77.3689 18.284 77.3689 17.804C77.3689 17.508 77.2969 17.272 77.1529 17.096C77.0169 16.912 76.7129 16.736 76.2409 16.568C75.7689 16.4 75.0449 16.188 74.0689 15.932C72.9809 15.644 72.1169 15.336 71.4769 15.008C70.8369 14.672 70.3769 14.276 70.0969 13.82C69.8169 13.364 69.6769 12.812 69.6769 12.164C69.6769 11.356 69.8889 10.652 70.3129 10.052C70.7369 9.452 71.3289 8.992 72.0889 8.672C72.8489 8.344 73.7449 8.18 74.7769 8.18C75.7849 8.18 76.6769 8.336 77.4529 8.648C78.2369 8.96 78.8689 9.404 79.3489 9.98C79.8289 10.556 80.1249 11.232 80.2369 12.008L77.2849 12.536C77.2129 11.984 76.9609 11.548 76.5289 11.228C76.1049 10.908 75.5369 10.728 74.8249 10.688C74.1449 10.648 73.5969 10.752 73.1809 11C72.7649 11.24 72.5569 11.58 72.5569 12.02C72.5569 12.268 72.6409 12.48 72.8089 12.656C72.9769 12.832 73.3129 13.008 73.8169 13.184C74.3289 13.36 75.0889 13.576 76.0969 13.832C77.1289 14.096 77.9529 14.4 78.5689 14.744C79.1929 15.08 79.6409 15.484 79.9129 15.956C80.1929 16.428 80.3329 17 80.3329 17.672C80.3329 18.976 79.8569 20 78.9049 20.744C77.9609 21.488 76.6529 21.86 74.9809 21.86ZM95.6619 21.5C94.8059 21.66 93.9659 21.728 93.1419 21.704C92.3259 21.688 91.5939 21.54 90.9459 21.26C90.2979 20.972 89.8059 20.52 89.4699 19.904C89.1739 19.344 89.0179 18.772 89.0019 18.188C88.9859 17.604 88.9779 16.944 88.9779 16.208V4.94H91.8579V16.04C91.8579 16.56 91.8619 17.016 91.8699 17.408C91.8859 17.8 91.9699 18.12 92.1219 18.368C92.4099 18.848 92.8699 19.116 93.5019 19.172C94.1339 19.228 94.8539 19.196 95.6619 19.076V21.5ZM86.6259 10.808V8.54H95.6619V10.808H86.6259ZM107.563 21.5V15.26C107.563 14.852 107.535 14.4 107.479 13.904C107.423 13.408 107.291 12.932 107.083 12.476C106.883 12.012 106.579 11.632 106.171 11.336C105.771 11.04 105.227 10.892 104.539 10.892C104.171 10.892 103.807 10.952 103.447 11.072C103.087 11.192 102.759 11.4 102.463 11.696C102.175 11.984 101.943 12.384 101.767 12.896C101.591 13.4 101.503 14.048 101.503 14.84L99.7867 14.108C99.7867 13.004 99.9987 12.004 100.423 11.108C100.855 10.212 101.487 9.5 102.319 8.972C103.151 8.436 104.175 8.168 105.391 8.168C106.351 8.168 107.143 8.328 107.767 8.648C108.391 8.968 108.887 9.376 109.255 9.872C109.623 10.368 109.895 10.896 110.071 11.456C110.247 12.016 110.359 12.548 110.407 13.052C110.463 13.548 110.491 13.952 110.491 14.264V21.5H107.563ZM98.5747 21.5V4.22H101.155V13.316H101.503V21.5H98.5747ZM119.664 21.86C118.352 21.86 117.2 21.576 116.208 21.008C115.216 20.44 114.44 19.652 113.88 18.644C113.328 17.636 113.052 16.476 113.052 15.164C113.052 13.748 113.324 12.52 113.868 11.48C114.412 10.432 115.168 9.62 116.136 9.044C117.104 8.468 118.224 8.18 119.496 8.18C120.84 8.18 121.98 8.496 122.916 9.128C123.86 9.752 124.56 10.636 125.016 11.78C125.472 12.924 125.644 14.272 125.532 15.824H122.664V14.768C122.656 13.36 122.408 12.332 121.92 11.684C121.432 11.036 120.664 10.712 119.616 10.712C118.432 10.712 117.552 11.08 116.976 11.816C116.4 12.544 116.112 13.612 116.112 15.02C116.112 16.332 116.4 17.348 116.976 18.068C117.552 18.788 118.392 19.148 119.496 19.148C120.208 19.148 120.82 18.992 121.332 18.68C121.852 18.36 122.252 17.9 122.532 17.3L125.388 18.164C124.892 19.332 124.124 20.24 123.084 20.888C122.052 21.536 120.912 21.86 119.664 21.86ZM115.2 15.824V13.64H124.116V15.824H115.2ZM139.542 21.86C138.278 21.86 137.218 21.56 136.362 20.96C135.506 20.36 134.862 19.544 134.43 18.512C133.998 17.472 133.782 16.308 133.782 15.02C133.782 13.716 133.998 12.548 134.43 11.516C134.862 10.484 135.494 9.672 136.326 9.08C137.166 8.48 138.202 8.18 139.434 8.18C140.658 8.18 141.718 8.48 142.614 9.08C143.518 9.672 144.218 10.484 144.714 11.516C145.21 12.54 145.458 13.708 145.458 15.02C145.458 16.316 145.214 17.48 144.726 18.512C144.238 19.544 143.55 20.36 142.662 20.96C141.774 21.56 140.734 21.86 139.542 21.86ZM133.29 27.26V8.54H135.846V17.636H136.206V27.26H133.29ZM139.098 19.268C139.85 19.268 140.47 19.08 140.958 18.704C141.446 18.328 141.806 17.82 142.038 17.18C142.278 16.532 142.398 15.812 142.398 15.02C142.398 14.236 142.278 13.524 142.038 12.884C141.798 12.236 141.426 11.724 140.922 11.348C140.418 10.964 139.778 10.772 139.002 10.772C138.266 10.772 137.666 10.952 137.202 11.312C136.738 11.664 136.394 12.16 136.17 12.8C135.954 13.432 135.846 14.172 135.846 15.02C135.846 15.86 135.954 16.6 136.17 17.24C136.394 17.88 136.742 18.38 137.214 18.74C137.694 19.092 138.322 19.268 139.098 19.268ZM153.977 21.86C152.681 21.86 151.549 21.568 150.581 20.984C149.613 20.4 148.861 19.596 148.325 18.572C147.797 17.54 147.533 16.356 147.533 15.02C147.533 13.66 147.805 12.468 148.349 11.444C148.893 10.42 149.649 9.62 150.617 9.044C151.585 8.468 152.705 8.18 153.977 8.18C155.281 8.18 156.417 8.472 157.385 9.056C158.353 9.64 159.105 10.448 159.641 11.48C160.177 12.504 160.445 13.684 160.445 15.02C160.445 16.364 160.173 17.552 159.629 18.584C159.093 19.608 158.341 20.412 157.373 20.996C156.405 21.572 155.273 21.86 153.977 21.86ZM153.977 19.148C155.129 19.148 155.985 18.764 156.545 17.996C157.105 17.228 157.385 16.236 157.385 15.02C157.385 13.764 157.101 12.764 156.533 12.02C155.965 11.268 155.113 10.892 153.977 10.892C153.201 10.892 152.561 11.068 152.057 11.42C151.561 11.764 151.193 12.248 150.953 12.872C150.713 13.488 150.593 14.204 150.593 15.02C150.593 16.276 150.877 17.28 151.445 18.032C152.021 18.776 152.865 19.148 153.977 19.148ZM163.479 6.572V3.92H166.371V6.572H163.479ZM163.479 21.5V8.54H166.371V21.5H163.479ZM179.08 21.5V15.26C179.08 14.852 179.052 14.4 178.996 13.904C178.94 13.408 178.808 12.932 178.6 12.476C178.4 12.012 178.096 11.632 177.688 11.336C177.288 11.04 176.744 10.892 176.056 10.892C175.688 10.892 175.324 10.952 174.964 11.072C174.604 11.192 174.276 11.4 173.98 11.696C173.692 11.984 173.46 12.384 173.284 12.896C173.108 13.4 173.02 14.048 173.02 14.84L171.304 14.108C171.304 13.004 171.516 12.004 171.94 11.108C172.372 10.212 173.004 9.5 173.836 8.972C174.668 8.436 175.692 8.168 176.908 8.168C177.868 8.168 178.66 8.328 179.284 8.648C179.908 8.968 180.404 9.376 180.772 9.872C181.14 10.368 181.412 10.896 181.588 11.456C181.764 12.016 181.876 12.548 181.924 13.052C181.98 13.548 182.008 13.952 182.008 14.264V21.5H179.08ZM170.092 21.5V8.54H172.672V12.56H173.02V21.5H170.092ZM192.885 21.5C192.029 21.66 191.189 21.728 190.365 21.704C189.549 21.688 188.817 21.54 188.169 21.26C187.521 20.972 187.029 20.52 186.693 19.904C186.397 19.344 186.241 18.772 186.225 18.188C186.209 17.604 186.201 16.944 186.201 16.208V4.94H189.081V16.04C189.081 16.56 189.085 17.016 189.093 17.408C189.109 17.8 189.193 18.12 189.345 18.368C189.633 18.848 190.093 19.116 190.725 19.172C191.357 19.228 192.077 19.196 192.885 19.076V21.5ZM183.849 10.808V8.54H192.885V10.808H183.849Z" fill="#E7E7E7"/>
<circle cx="201" cy="19.5" r="2" fill="#FFCD00"/>
</svg>
